# xmcd
#
# Track frame offsets:
#	150
#	13636
#	29524
#	38447
#	50856
#	61071
#	82400
#	92361
#	112625
#	128457
#	137923
#	154153
#
# Disc length: 2227 seconds
#
# Revision: 1
# Processed by: cddbd v1.5.2PL0 Copyright (c) Steve Scherf et al.
# Submitted via: audiograbber 1.83.01
#
DISCID=9008b10c
DTITLE=Jake Workman - Rocky Mountain Hideaway
DYEAR=2009
DGENRE=Bluegrass
TTITLE0=Rocky Mountain Hideaway
TTITLE1=I Won't Be Over You
TTITLE2=Great Basin Rag
TTITLE3=Time's Up
TTITLE4=Lucky Streak
TTITLE5=Walking Through My Memory
TTITLE6=M.I.A.
TTITLE7=Fraulein
TTITLE8=Moscow Pass
TTITLE9=Come Back Darling
TTITLE10=Manassas
TTITLE11=Wheel Hoss
EXTD=
EXTT0=
EXTT1=
EXTT2=
EXTT3=
EXTT4=
EXTT5=
EXTT6=
EXTT7=
EXTT8=
EXTT9=
EXTT10=
EXTT11=
PLAYORDER=
